<?xml version="1.0" encoding="UTF-8" standalone="no"?>
<svg
   version="1.1"
   id="svg48"
   width="256"
   height="256"
   viewBox="0 0 256 256"
  xmlns="http://www.w3.org/2000/svg"
   xmlns:svg="http://www.w3.org/2000/svg"
>

  <g

     id="g54">
    <path
       style="fill:currentColor"
       d="m 139.27525,203.44291 c -3.97361,-1.31012 -10.27361,-2.64849 -14,-2.97415 -9.69803,-0.84754 -11.08623,-1.24706 -12.31578,-3.54449 -2.67091,-4.99065 4.06876,-6.22468 18.70256,-3.42444 4.31088,0.8249 7.91917,1.4999 8.01842,1.5 0.0992,9e-5 0.32425,-1.01233 0.5,-2.24983 0.24893,-1.75275 0.97162,-2.25 3.27008,-2.25 2.64579,0 3.20773,0.60271 5.4409,5.83558 1.87365,4.39044 2.23083,6.24776 1.44229,7.5 -1.48071,2.35145 -2.88692,2.30152 -11.05847,-0.39267 z m -76.440986,-3.9062 c -6.963973,-6.47658 -22.192733,-8.58904 -31.879034,-4.4221 -7.594835,3.26721 -8.330893,2.51379 -7.704293,-7.88598 0.581187,-9.64606 3.064908,-17.44343 7.765968,-24.38042 1.620685,-2.39151 2.954889,-4.68571 2.964898,-5.09821 0.02918,-1.20277 -11.92558,-0.82489 -18.678539,0.5904 -7.9695255,1.67026 -9.7440093,0.82548 -8.804816,-4.19173 1.8985247,-10.14201 9.905942,-20.53797 20.366343,-26.44145 l 5.541594,-3.12749 -5.953192,-2.70801 c -3.274256,-1.48941 -8.781759,-3.2806 -12.238895,-3.98042 -6.9337614,-1.4036 -8.710206,-2.75347 -7.7218136,-5.86762 0.7467724,-2.35287 8.9273686,-8.75473 15.2260346,-11.91537 5.028352,-2.523208 15.306024,-5.072932 20.531481,-5.093529 4.271147,-0.01684 4.227935,0.06484 2.34717,-4.436463 C 42.840713,86.374524 36.878332,79.705958 32.403365,76.940276 30.531514,75.783409 29,74.028683 29,73.040885 29,69.456628 31.823755,68.5 42.403695,68.5 c 11.351771,0 17.402964,1.611939 25.039358,6.670076 2.554248,1.691864 4.768548,2.908223 4.920665,2.70302 0.152117,-0.205203 1.542694,-3.015958 3.09017,-6.246123 1.547476,-3.230166 5.683344,-8.915115 9.190818,-12.633222 C 94.925059,48.096035 100,47.424777 100,56.962722 c 0,5.537145 4.34955,15.081864 8.82816,19.372641 l 2.8874,2.766306 2.69258,-5.503447 c 4.64989,-9.504023 18.30842,-19.483632 31.06109,-22.694792 3.96981,-0.99961 4.91854,-0.944234 6.22619,0.363416 1.3903,1.390299 1.35879,2.021444 -0.31886,6.387939 -1.18039,3.072265 -1.80193,7.040721 -1.69857,10.845215 0.16664,6.133919 2.23974,13.639243 3.92231,14.2001 0.51591,0.171969 1.79632,-1.2811 2.84535,-3.229043 4.28028,-7.948001 16.01155,-15.749593 25.67422,-17.074009 6.53658,-0.895938 7.58148,0.807924 4.74721,7.741002 -1.63602,4.00196 -2.2142,7.558833 -2.27954,14.023471 -0.0481,4.763837 0.21981,8.971186 0.59546,9.349665 0.37565,0.378479 2.40065,0.103099 4.5,-0.611955 2.09935,-0.715054 7.192,-1.308964 11.317,-1.3198 6.44268,-0.01692 8.25789,0.395847 12.87602,2.927953 9.84893,5.400132 10.78706,10.243426 2.34715,12.117636 -6.19779,1.37632 -9.11427,3.1225 -12.34862,7.39349 -5.31922,7.0241 -6.72537,8.1317 -8.86786,6.98507 -2.43581,-1.3036 -2.5858,-4.69138 -0.35557,-8.03107 2.80998,-4.20786 7.71353,-9.0723 10.7445,-10.65881 2.2504,-1.17794 2.58464,-1.71258 1.5,-2.399371 -2.56074,-1.621454 -9.96342,-0.941038 -17.58041,1.615901 -8.671,2.91076 -9.64435,2.57977 -11.45907,-3.896718 -1.31586,-4.696103 -1.65504,-18.752419 -0.55219,-22.883512 0.98277,-3.681254 -0.821,-3.606866 -6.15027,0.253637 -5.22265,3.783267 -9.83691,10.097399 -11.25441,15.400482 C 158.50973,95.602598 157.34256,97 154.3901,97 149.1092,97 142.05524,80.309341 142.02109,67.733154 L 142,59.966308 l -5.0359,2.551886 c -9.45618,4.791805 -16.19368,12.838177 -18.40144,21.976212 -1.69005,6.995226 -4.8291,7.196957 -11.75747,0.755594 C 100.95088,79.807188 95.878641,72.376987 93.780732,66.170771 L 92.333256,61.888723 88.569457,66.0548 c -5.448963,6.031351 -8.547896,13.286671 -8.559688,20.040212 -0.0074,4.247025 -0.474301,6.015409 -1.937875,7.339925 C 75.485495,95.775596 73.594892,94.60854 69.08836,87.889465 64.889115,81.628544 57.346124,77.302069 48.882058,76.299626 l -5.233641,-0.619848 3.130194,3.910111 c 3.579215,4.47101 6.699378,11.240254 7.633874,16.561811 0.97005,5.52403 -0.940196,6.8483 -9.878578,6.8483 -7.819517,0 -17.967116,2.59393 -22.829036,5.83556 l -2.795129,1.86363 7.409573,2.70242 c 4.075265,1.48633 9.970342,4.30419 13.100171,6.26191 5.056921,3.16312 5.65663,3.88692 5.385556,6.49988 -0.274988,2.65069 -0.960877,3.16885 -6.961558,5.25922 -9.810443,3.41753 -16.720683,8.81882 -20.591928,16.09539 l -1.073613,2.01802 10.661028,-0.018 c 11.496785,-0.0194 18.302335,2.04137 18.987766,5.74971 0.187253,1.01308 -1.607743,3.91933 -4.204717,6.80779 -5.090862,5.66226 -9.237202,13.66578 -10.200432,19.68949 l -0.644033,4.02756 8.361223,-0.51995 c 10.209277,-0.63486 19.445466,1.42985 25.611135,5.72527 l 4.249912,2.96078 6.212257,-1.5915 c 8.000476,-2.04963 22.356344,-1.53518 26.128328,0.93631 2.10152,1.37698 2.43415,2.12651 1.75205,3.94809 -0.69661,1.86031 -1.51089,2.21128 -4.717202,2.03314 C 84.442086,198.51063 79.303409,198.84817 74,200.88581 c -3.025,1.16225 -5.95,2.10123 -6.5,2.08663 -0.55,-0.0146 -2.649581,-1.56069 -4.665736,-3.43573 z M 174.5,199.91558 c -15.99884,-2.39341 -31.4078,-16.17931 -31.47804,-28.16238 -0.0185,-3.16081 -0.78937,-4.49019 -4.92878,-8.5 -9.76558,-9.45986 -9.22341,-20.68719 1.45283,-30.08478 9.14997,-8.05413 20.21285,-7.86359 28.24183,0.4864 l 4.28784,4.45928 3.21216,-2.71153 c 7.83707,-6.61563 22.6363,-10.77801 25.43076,-7.15257 0.52992,0.6875 1.66916,4.175 2.53163,7.75 5.03009,20.84999 14.36196,32 26.78205,32 H 234.75 v -2.67201 C 234.75,162.53087 237.24382,160 240,160 c 2.75513,0 5.25,2.53046 5.25,5.32491 0,3.05535 -1.8216,5.67509 -3.9461,5.67509 -0.79816,0 -3.73926,2.5035 -6.53578,5.56333 -10.90616,11.93308 -26.38058,15.02168 -43.4199,8.66633 -5.7929,-2.16064 -7.51259,-4.49386 -5.09447,-6.91198 l 1.71985,-1.71985 6.83415,2.20109 c 9.02813,2.9077 18.61017,2.93727 25.25687,0.0779 2.71446,-1.16773 4.93538,-2.4566 4.93538,-2.86415 0,-0.40755 -2.1327,-1.55548 -4.73932,-2.55096 -9.69799,-3.70369 -18.97811,-16.54899 -22.9805,-31.80902 C 195.83743,136.15193 195.17665,135 193.46399,135 c -3.93575,0 -12.41317,5.16397 -17.3562,10.57243 -6.53376,7.14898 -8.3278,7.09811 -10.73997,-0.30454 -4.08294,-12.53005 -16.35167,-13.6889 -24.11782,-2.27806 -1.2375,1.81827 -2.24832,4.47689 -2.24626,5.90805 0.006,3.96368 3.46492,8.7904 7.93388,11.0703 l 4.01608,2.04885 -0.0813,5.77368 c -0.0447,3.17553 0.58834,7.3342 1.40676,9.24149 2.03031,4.73153 8.19563,10.41144 14.22081,13.10118 6.96802,3.11063 20.35152,3.74503 29.09231,1.37901 6.66967,-1.8054 9.40769,-1.198 9.40769,2.087 0,4.43413 -18.06856,8.17591 -30.5,6.31619 z M 91,171.22167 c -2.407676,-1.1111 -6.5011,-1.63692 -13.116056,-1.68482 C 64.014231,169.43641 62.884239,167.81966 68.856507,156.62074 73.612861,147.70184 84.060426,142 95.646317,142 c 4.25986,0 5.490663,0.38743 6.353683,2 1.97381,3.6881 -0.21359,5.63289 -7.151136,6.35801 -7.281511,0.76107 -13.972403,3.71507 -16.940827,7.47931 l -2.099748,2.66268 7.345856,0.62038 c 12.138259,1.02512 18.209155,4.59208 16.014316,9.40923 -1.286817,2.82426 -3.197362,2.98613 -8.168461,0.69206 z m 90.63486,-9.29425 C 178.41116,159.39166 178.12248,154.87752 181,152 c 4.06761,-4.06761 11.01179,-1.34504 10.98469,4.3067 -0.018,3.75313 -0.70906,4.98563 -3.66895,6.5436 -2.97058,1.56359 -3.63686,1.47155 -6.68088,-0.92288 z M 99.389532,132.23469 C 98.778775,131.83061 97.490896,129.925 96.527579,128 c -2.486002,-4.96779 -7.339126,-9.7827 -11.11706,-11.02953 -6.121449,-2.02026 -5.456442,-5.90003 1.626487,-9.48922 9.462595,-4.79506 22.475104,-4.92192 31.770284,-0.30973 3.61716,1.7948 4.76375,2.94336 5.00264,5.01122 0.51287,4.43936 -2.43458,5.15796 -9.40401,2.29273 -8.77724,-3.60844 -21.360669,-3.14896 -16.782463,0.6128 C 100.63779,117.56505 105,125.29554 105,128.1606 c 0,1.71421 -0.73683,3.16337 -1.93426,3.80422 -2.27539,1.21775 -2.24668,1.21564 -3.676208,0.26987 z"
       id="path396" />
  </g>
</svg>
